<svg width="1024" height="1024" viewBox="0 0 1024 1024" fill="none" xmlns="http://www.w3.org/2000/svg">
<path d="M559.011 424.1C575.421 424.61 591.341 431.46 602.941 443.08C608.701 448.69 612.891 455.39 616.541 462.51C624.411 457.42 632.341 452.43 640.301 447.48C641.551 448.57 642.721 449.73 643.861 450.94C640.691 454.46 636.791 456.33 632.901 458.87C628.131 461.9 623.351 464.9 618.601 467.95C621.771 477.95 623.131 488.34 621.401 498.76C619.351 513.68 611.811 527.62 600.651 537.69C589.071 548.25 573.691 554.41 558.001 554.53C545.021 554.87 531.931 551.05 521.101 543.9C508.661 535.84 499.291 523.39 494.701 509.32C490.131 494.82 490.641 478.58 496.491 464.51C501.901 451.13 512.051 439.69 524.611 432.6C534.921 426.56 547.121 423.75 559.011 424.1Z" fill="black"/>
<path d="M549.27 430.26C563.92 428.49 578.54 431.88 590.67 440.3C603.13 448.78 612.04 462.17 615.13 476.92C617.75 489.28 616.37 502.44 611.06 513.94C604.94 527.58 593.39 538.84 579.48 544.37C569.26 548.6 557.91 550.02 547 548.04C530.59 545.39 515.52 535.42 506.65 521.36C501.05 512.59 497.91 502.42 497.28 492.05C496.67 477.59 501.51 462.9 510.69 451.69C520.16 439.92 534.31 432.13 549.27 430.26Z" fill="white"/>
<path d="M414.051 453.95C424.801 459.98 433.291 469.73 437.921 481.15C441.411 489.66 442.461 498.93 441.531 508.05C439.741 525.18 429.371 540.91 414.431 549.43C397.941 559.07 376.771 559.2 360.131 549.84C345.711 541.85 335.381 527.29 332.731 511C330.921 502.1 332.091 493.33 334.621 484.71C328.801 481.08 322.491 478.09 316.881 474.16C314.931 473.06 315.441 470.04 317.561 469.52C319.211 469.04 320.741 470.11 322.161 470.8C326.991 473.63 331.801 476.46 336.641 479.27C343.221 465.14 355.291 454.07 370.231 449.4C384.651 444.74 400.891 446.45 414.051 453.95Z" fill="black"/>
<path d="M378.27 453.29C393.3 450.51 409.21 455.24 420.38 465.64C430.44 474.88 436.28 488.36 436.31 502.01C436.14 510.06 434.09 518.18 430.24 525.27C423.3 538.09 410.6 547.48 396.26 550.17C388.19 551.89 380.03 551.26 372.18 548.81C353.08 542.93 338.87 525.03 337.8 505.02C336.82 492.23 341.28 479.3 349.65 469.61C356.96 461.08 367.22 455.29 378.27 453.29Z" fill="white"/>
<path d="M527.27 466.19C534.64 465.29 542.48 467.97 547.52 473.48C551.34 477.65 553.8 483.27 553.93 488.95C554.21 496.21 550.9 503.65 545.2 508.19C538.24 514.02 527.96 515.11 519.84 511.15C511.2 507.05 505.61 497.54 506.46 487.97C507.16 476.83 516.2 467.46 527.27 466.19Z" fill="black"/>
<path d="M358.54 480.84C369.95 476.97 382.88 483.84 386.08 495.43C389.85 507.12 382.06 520.29 370.05 522.75C359.42 525.4 347.86 519.21 344.39 508.81C340.47 497.68 347.14 484.22 358.54 480.84Z" fill="black"/>
</svg>
