<svg width="1024" height="1024" viewBox="0 0 1024 1024" fill="none" xmlns="http://www.w3.org/2000/svg">
<path d="M589.95 433.05C601.8 439.97 610.99 450.56 616.66 463.02C622.59 459.89 628.33 456.34 634.34 453.39C636.13 452.44 638.74 453.94 638.32 456.01C638.53 457.49 636.3 458.52 635.26 459.24C629.81 462.24 624.38 465.28 618.92 468.27C620.62 475.14 622.15 481.87 622.16 489C622.1 501.85 618.47 514.61 611.29 525.3C603.7 536.84 592.41 545.74 579.5 550.58C567.24 555.01 553.65 555.86 541 552.61C524.46 548.59 509.69 537.63 500.99 523.01C494.93 513.12 491.66 501.59 491.69 490C491.33 474.45 497 458.89 507.1 447.09C516.68 435.82 530.34 427.67 544.97 425.19C560.22 422.22 576.58 425.17 589.95 433.05Z" fill="black"/>
<path d="M549.2 430.27C565.1 428.3 580.94 432.54 593.56 442.41C608.02 453.59 616.83 471.69 616.37 490C616.39 512.44 602.57 533.89 582.17 543.21C571.21 548.29 558.93 550.21 547 548.04C530.34 545.35 515.08 535.13 506.26 520.74C500.9 512.1 497.89 502.16 497.28 492.02C496.67 477.32 501.68 462.4 511.16 451.12C520.59 439.69 534.52 432.13 549.2 430.27Z" fill="white"/>
<path d="M390.01 446.91C402.76 447.59 415.12 452.84 424.44 461.56C434.53 470.96 440.98 484.23 441.73 498.03C442.56 509.48 439.77 520.96 433.72 530.71C425.71 543.79 412.09 553.14 396.99 555.85C383.82 558.33 369.7 555.78 358.28 548.75C345.65 541.09 336.42 528.25 333.28 513.81C330.92 504.4 331.72 494.88 334.31 485.62C330.54 484.08 326.77 482.59 322.98 481.13C321.09 480.34 318.97 479.68 317.63 478.04C317.23 475.64 318.39 474.12 320.84 474.42C326.04 475.67 330.82 478.63 336.01 479.99C337.4 478.34 338.25 476.18 339.32 474.31C349.34 456.5 369.63 445.58 390.01 446.91Z" fill="black"/>
<path d="M376.509 453.66C395.129 449.41 415.259 457.1 426.509 472.47C432.229 480.16 435.529 489.46 436.239 498.99C436.909 512.6 431.799 526.47 422.179 536.17C414.209 544.42 403.399 549.61 391.999 550.83C372.059 553.13 351.919 541.98 342.989 524.05C335.129 508.76 336.059 489.83 345.359 475.37C352.329 464.34 363.739 456.38 376.509 453.66Z" fill="white"/>
<path d="M578.28 465.43C584.52 464.67 590.97 466.25 596.02 470C602.31 474.65 606.29 482.14 606.2 490.01C605.85 494.79 604.37 499.66 601.63 503.63C597.53 509.76 590.36 513.69 583.03 514.17C574.82 514.66 566.61 510.89 561.78 504.2C555.76 496.23 555.54 484.4 561.15 476.17C564.99 470.33 571.38 466.39 578.28 465.43Z" fill="black"/>
<path d="M408.45 478.49C415.67 477.63 423.24 480.49 428.06 485.96C432.09 490.43 434.08 495.98 433.8 502C433.84 514 423.11 524.79 411 524.28C398.9 524.37 388.12 514.23 388.13 502.02C387.42 490.21 396.8 479.7 408.45 478.49Z" fill="black"/>
</svg>
