<svg width="1024" height="1024" viewBox="0 0 1024 1024" fill="none" xmlns="http://www.w3.org/2000/svg">
<path d="M587.369 431.61C599.429 437.97 609.289 448.09 615.309 460.32C620.889 456.87 626.569 453.6 632.139 450.13C633.699 449.2 635.279 448.19 637.029 447.67C638.959 448.23 639.799 448.98 639.749 451.11C639.279 452.41 637.999 453.11 636.919 453.87C630.459 457.82 623.849 461.54 617.509 465.68C623.579 479.84 623.479 496.86 618.319 511.29C613.069 526.12 602.199 538.86 588.419 546.44C575.349 553.8 559.529 556.24 544.829 553.45C526.959 550.21 510.769 539.08 501.329 523.57C495.069 513.55 491.649 501.83 491.689 490C491.299 473.73 497.539 457.48 508.509 445.49C517.979 435.07 531.039 427.54 544.969 425.2C559.249 422.41 574.529 424.82 587.369 431.61Z" fill="black"/>
<path d="M549.2 430.27C563.86 428.48 578.51 431.86 590.66 440.29C601.97 448 610.47 459.81 614.12 473.01C618.05 486.38 616.9 501.28 611.06 513.94C604.85 527.8 593.01 539.2 578.81 544.63C568.82 548.66 557.61 549.98 547 548.04C530.6 545.4 515.52 535.42 506.65 521.37C501.05 512.59 497.9 502.4 497.28 492.02C496.68 477.57 501.52 462.88 510.69 451.68C520.14 439.94 534.27 432.16 549.2 430.27Z" fill="white"/>
<path d="M414.691 454.33C426.261 461.02 435.141 472.08 439.231 484.79C441.911 492.81 442.401 501.65 441.301 510C439.261 523.95 431.651 536.85 420.451 545.42C409.071 554.18 394.261 558.25 380.011 556.31C364.221 554.49 349.651 545.31 340.981 532.02C335.441 523.69 332.511 513.97 331.881 504.02C331.561 496.95 333.051 490.4 334.801 483.63C330.461 480.9 326.151 478.04 321.991 475.03C320.291 473.8 320.161 472.89 320.461 470.86C321.761 469.6 323.201 469.27 324.811 470.21C329.001 472.78 332.961 475.74 337.061 478.45C343.751 464.43 356.101 453.59 371.031 449.16C385.481 444.72 401.671 446.66 414.691 454.33Z" fill="black"/>
<path d="M378.2 453.3C396.88 449.78 416.58 458.01 427.34 473.63C434.84 484.4 438.19 498.59 435.22 511.47C433.26 521.47 428.09 530.72 420.65 537.67C412.61 545.33 402.03 549.94 391 550.94C370.87 552.79 350.86 541.12 342.38 522.8C334.72 506.83 336.54 487.29 346.98 472.99C354.35 462.68 365.73 455.56 378.2 453.3Z" fill="white"/>
<path d="M526.47 467.49C538.48 464.64 551.34 471.71 555.82 483.12C558.04 489.14 558.15 495.86 555.74 501.84C552.57 510.16 544.83 516.43 536.03 517.77C528.41 519.1 520.28 516.63 514.6 511.4C507.05 504.55 504.29 493.37 507.84 483.8C510.76 475.51 517.9 469.38 526.47 467.49Z" fill="black"/>
<path d="M398.22 478.36C407.71 476.38 417.83 480.95 422.66 489.35C426.12 494.95 426.33 501.62 424.91 507.89C422.54 515.13 416.4 521.12 409.04 523.16C401.53 525.56 392.78 523.22 387.06 517.92C379.71 511.11 377.57 499.92 382.01 490.92C385.08 484.41 391.19 479.8 398.22 478.36Z" fill="black"/>
</svg>
